# xmcd CD database file
#
# Track frame offsets:
#	150
#	10305
#	22042
#	33930
#	45242
#	58717
#	67980
#	81730
#	92017
#	104855
#	116780
#	129455
#	142155
#	152867
#	169817
#	181042
#	192280
#	203367
#	215555
#	228117
#	237792
#	249542
#	265430
#	278017
#
# Disc length: 3863 seconds
#
# Revision: 0
# Processed by: cddbd v1.4PL0 Copyright (c) Steve Scherf et al.
# Submitted via: Feurio! 1.65 - http://www.feurio.com
#
DISCID=560f1518
DTITLE=Various Artist - 48 All Time Best Country and Western Classics
DYEAR=1900
DGENRE=country
TTITLE0=Springfields - Silver threads and golden Neeedles
TTITLE1=Johnny Cash - Ring of Fire
TTITLE2=Tammy Wynette - Stand by your Man
TTITLE3=Johnny Horton - Battle of New Orleans
TTITLE4=Dean Martin - Rio Bravo
TTITLE5=Roger Miller - Chug a lug
TTITLE6=The Brothers Four - Greenfields
TTITLE7=Al Caiola - Bonanza
TTITLE8=Lynn Anderson - Rose Garden
TTITLE9=Guy Mitchell - Heartache by the number
TTITLE10=Nancy Sinatra and Lee Hazlewood - Jackson
TTITLE11=Don Williams - Some brocken hearts never mend
TTITLE12=John D. Loudermilk - Blue Train
TTITLE13=Roy Drusky - The last farewell
TTITLE14=Leroy Pullins - I´m a nut
TTITLE15=Don Gibson - Oh lonesome me
TTITLE16=Billie Jo Spears - If you want me
TTITLE17=Joe Tex - Skiack Dollarsp a rope
TTITLE18=Kingston Trio - Greenback Dollars
TTITLE19=The Shaklefords - Mansion of tears
TTITLE20=Tennessee Ernie Ford - Sixteen tons
TTITLE21=New Christy Minstrels - Cottonfields
TTITLE22=Leroy van Dyke - The Auctioneer
TTITLE23=Frankie Laine - High Noon
EXTD=I 006
EXTT0=
EXTT1=
EXTT2=
EXTT3=
EXTT4=
EXTT5=
EXTT6=
EXTT7=
EXTT8=
EXTT9=
EXTT10=
EXTT11=
EXTT12=
EXTT13=
EXTT14=
EXTT15=
EXTT16=
EXTT17=
EXTT18=
EXTT19=
EXTT20=
EXTT21=
EXTT22=
EXTT23=
PLAYORDER=
